<?xml version="1.0" encoding="utf-8"?>
<!-- Generator: Adobe Illustrator 16.0.0, SVG Export Plug-In . SVG Version: 6.00 Build 0)  -->
<!DOCTYPE svg PUBLIC "-//W3C//DTD SVG 1.1//EN" "http://www.w3.org/Graphics/SVG/1.1/DTD/svg11.dtd">
<svg version="1.1" id="Layer_1" xmlns="http://www.w3.org/2000/svg" xmlns:xlink="http://www.w3.org/1999/xlink" x="0px" y="0px"
	 width="319.395px" height="46.994px" viewBox="0 0 319.395 46.994" enable-background="new 0 0 319.395 46.994"
	 xml:space="preserve" preserveAspectRatio="xMinYMin meet">
<g>
	<path fill="#282828" d="M18.544,23.409c-1.764-0.995-4.021-1.832-6.772-2.512c-0.27-0.066-1.105-0.274-2.506-0.622
		c-1.401-0.349-2.379-0.63-2.937-0.846s-0.949-0.448-1.177-0.697S4.81,18.169,4.81,17.787c0-0.929,0.586-1.518,1.759-1.766
		c1.173-0.249,2.35-0.373,3.532-0.373c1.435,0,2.696,0.153,3.785,0.46c1.088,0.307,1.962,0.742,2.62,1.306s1.08,1.186,1.266,1.866
		h2.076v-5.771h-2.025l-0.607,1.269c-0.76-0.348-1.696-0.671-2.81-0.97c-1.114-0.298-2.6-0.448-4.456-0.448
		c-2.971,0-5.372,0.572-7.203,1.717C0.915,16.22,0,17.771,0,19.728c0,1.542,0.515,2.803,1.544,3.781
		c1.029,0.979,2.287,1.729,3.772,2.251c1.485,0.522,3.393,1.074,5.722,1.654c1.924,0.481,3.236,0.892,3.937,1.231
		s1.051,0.883,1.051,1.629c0,0.863-0.342,1.502-1.025,1.916c-0.684,0.415-1.396,0.668-2.139,0.759
		c-0.743,0.091-1.435,0.137-2.076,0.137c-2.532,0-4.464-0.443-5.797-1.331c-1.333-0.887-2.186-1.887-2.557-2.998H0.304l0.253,6.469
		h1.975l0.987-1.393c1.013,0.514,2.194,0.898,3.544,1.156c1.35,0.257,2.692,0.386,4.025,0.386c1.975,0,3.717-0.261,5.228-0.784
		c1.51-0.521,2.7-1.289,3.57-2.301c0.869-1.012,1.304-2.23,1.304-3.656C21.19,26.146,20.308,24.404,18.544,23.409z"/>
	<path fill="#282828" d="M49.089,29.305c0,0.631-0.165,1.169-0.494,1.617s-0.713,0.672-1.152,0.672c-0.49,0-0.848-0.12-1.076-0.36
		C46.14,30.994,46,30.64,45.95,30.175c-0.051-0.463-0.076-1.193-0.076-2.188v-7.861c0-2.056-0.696-3.698-2.088-4.926
		c-1.393-1.227-3.946-1.841-7.658-1.841c-3.528,0-6.144,0.572-7.849,1.717c-1.705,1.144-2.557,2.487-2.557,4.03
		c0,0.78,0.27,1.368,0.81,1.767c0.54,0.398,1.165,0.597,1.874,0.597c1.147,0,1.902-0.245,2.266-0.734
		c0.363-0.489,0.612-1.115,0.747-1.878c0.186-1.078,0.565-1.882,1.139-2.413s1.51-0.796,2.81-0.796c1.519,0,2.561,0.335,3.126,1.007
		c0.565,0.671,0.848,1.596,0.848,2.774v1.418c-2.498,0.63-4.582,1.231-6.253,1.803c-1.671,0.572-3.11,1.231-4.316,1.978
		c-1.207,0.746-2.123,1.596-2.747,2.55c-0.625,0.954-0.937,2.02-0.937,3.196c0,1.427,0.582,2.575,1.747,3.445
		c1.165,0.871,2.658,1.307,4.481,1.307c2.852,0,5.688-1.111,8.506-3.334c0.186,0.912,0.751,1.696,1.696,2.352
		c0.945,0.654,2.126,0.982,3.544,0.982c1.114,0,2.114-0.211,3-0.635c0.886-0.422,1.591-1.077,2.114-1.965
		c0.523-0.887,0.785-1.961,0.785-3.222H49.089z M37.089,31.022c-0.709,0.382-1.528,0.572-2.456,0.572c-0.86,0-1.527-0.232-2-0.696
		c-0.473-0.465-0.708-1.078-0.708-1.842c0-0.912,0.434-1.845,1.304-2.799c0.869-0.953,2.907-1.928,6.114-2.923v6.17
		C38.548,30.134,37.798,30.64,37.089,31.022z"/>
	<path fill="#282828" d="M75.2,14.503c-0.81-0.763-1.907-1.145-3.291-1.145c-0.996,0-1.971,0.249-2.924,0.747c-0.954,0.498-1.814,1.153-2.583,1.965
		s-1.388,1.708-1.861,2.687c-0.219-2.753-0.456-4.553-0.709-5.398l-9.873,2.14v2.289c1.299,0,2.244,0.079,2.835,0.236
		c0.59,0.158,1,0.477,1.228,0.958c0.228,0.481,0.342,1.277,0.342,2.389v7.265c0,1.359-0.161,2.305-0.481,2.836
		c-0.321,0.53-1.19,0.795-2.607,0.795H53.96v2.289h15.721v-2.289H68.34c-1.553,0-2.511-0.256-2.874-0.771
		c-0.363-0.515-0.544-1.468-0.544-2.86v-4.33c0-1.509,0.367-2.964,1.101-4.366c0.734-1.401,1.76-2.102,3.076-2.102
		c0.405,0,0.717,0.091,0.937,0.273c0.219,0.183,0.498,0.481,0.835,0.896c0.726,0.929,1.57,1.393,2.532,1.393
		c0.81,0,1.515-0.277,2.114-0.833s0.899-1.314,0.899-2.276C76.416,16.195,76.011,15.266,75.2,14.503z"/>
	<path fill="#282828" d="M102.492,29.305c0,0.631-0.165,1.169-0.494,1.617s-0.713,0.672-1.152,0.672c-0.49,0-0.848-0.12-1.076-0.36
		c-0.228-0.24-0.367-0.594-0.418-1.059c-0.051-0.463-0.076-1.193-0.076-2.188v-7.861c0-2.056-0.696-3.698-2.088-4.926
		c-1.393-1.227-3.946-1.841-7.658-1.841c-3.528,0-6.144,0.572-7.848,1.717c-1.705,1.144-2.557,2.487-2.557,4.03
		c0,0.78,0.27,1.368,0.81,1.767c0.54,0.398,1.165,0.597,1.874,0.597c1.147,0,1.903-0.245,2.266-0.734
		c0.363-0.489,0.612-1.115,0.747-1.878c0.186-1.078,0.565-1.882,1.139-2.413s1.51-0.796,2.81-0.796c1.519,0,2.561,0.335,3.126,1.007
		c0.565,0.671,0.849,1.596,0.849,2.774v1.418c-2.498,0.63-4.583,1.231-6.253,1.803c-1.671,0.572-3.11,1.231-4.316,1.978
		c-1.207,0.746-2.123,1.596-2.747,2.55s-0.937,2.02-0.937,3.196c0,1.427,0.582,2.575,1.747,3.445
		c1.165,0.871,2.658,1.307,4.481,1.307c2.852,0,5.688-1.111,8.506-3.334c0.186,0.912,0.751,1.696,1.696,2.352
		c0.945,0.654,2.127,0.982,3.544,0.982c1.114,0,2.114-0.211,3-0.635c0.886-0.422,1.591-1.077,2.114-1.965
		c0.523-0.887,0.785-1.961,0.785-3.222H102.492z M90.492,31.022c-0.709,0.382-1.528,0.572-2.456,0.572c-0.861,0-1.528-0.232-2-0.696
		c-0.473-0.465-0.709-1.078-0.709-1.842c0-0.912,0.435-1.845,1.304-2.799c0.869-0.953,2.907-1.928,6.114-2.923v6.17
		C91.951,30.134,91.201,30.64,90.492,31.022z"/>
	<path fill="#282828" d="M135.003,32.265c-1.553,0-2.511-0.256-2.874-0.771c-0.363-0.515-0.544-1.468-0.544-2.86v-7.439
		c0-1.94-0.346-3.516-1.038-4.727c-0.321-0.614-0.832-1.161-1.532-1.642c-0.701-0.481-1.49-0.846-2.367-1.095
		c-0.878-0.249-1.755-0.373-2.633-0.373c-1.908,0-3.397,0.353-4.469,1.057c-1.072,0.705-2.105,1.572-3.101,2.6V0.224l-10.203,2.14
		v2.239c1.637,0.017,2.658,0.236,3.063,0.659c0.405,0.423,0.607,1.256,0.607,2.5v20.873c0,1.044-0.063,1.795-0.19,2.251
		s-0.456,0.8-0.987,1.032s-1.363,0.348-2.494,0.348v2.289h13.266v-2.289c-0.996,0-1.709-0.152-2.14-0.46
		c-0.43-0.307-0.692-0.729-0.785-1.269s-0.139-1.389-0.139-2.55v-4.279c0-0.995,0.063-1.845,0.19-2.55
		c0.126-0.705,0.426-1.438,0.898-2.201c0.439-0.68,1.067-1.231,1.886-1.654c0.818-0.423,1.624-0.635,2.418-0.635
		c0.979,0,1.705,0.27,2.177,0.809c0.472,0.539,0.763,1.141,0.873,1.804c0.11,0.664,0.165,1.41,0.165,2.239v8.359
		c0,0.78-0.219,1.372-0.658,1.778c-0.439,0.407-1.24,0.609-2.405,0.609v2.289h13.013V32.265z"/>
	<path fill="#282828" d="M164.092,32.265h-0.733c-0.979,0-1.692-0.137-2.14-0.41s-0.718-0.646-0.81-1.119c-0.093-0.473-0.139-1.174-0.139-2.102
		V0.224l-10.734,2.14v2.289c1.671,0,2.789,0.166,3.354,0.498c0.565,0.332,0.848,1.095,0.848,2.289v21.196
		c0,0.928-0.051,1.633-0.152,2.113c-0.102,0.482-0.376,0.855-0.823,1.12c-0.447,0.266-1.16,0.397-2.139,0.397h-1.089v2.289h14.557
		V32.265z"/>
	<path fill="#282828" d="M176.143,1.044C175.434,0.348,174.564,0,173.535,0c-1.013,0-1.882,0.357-2.607,1.07s-1.089,1.567-1.089,2.562
		c0,0.962,0.367,1.804,1.102,2.525c0.734,0.722,1.599,1.083,2.595,1.083c1.013,0,1.878-0.352,2.595-1.058
		c0.718-0.705,1.076-1.555,1.076-2.55C177.206,2.604,176.852,1.741,176.143,1.044z M180.067,32.265
		c-1.536,0-2.481-0.256-2.836-0.771s-0.531-1.468-0.531-2.86V13.359l-10.38,2.14v2.289c1.248,0.017,2.139,0.125,2.671,0.323
		c0.531,0.199,0.86,0.515,0.987,0.945c0.126,0.432,0.189,1.161,0.189,2.189v7.389c0,0.928-0.051,1.633-0.151,2.113
		c-0.102,0.482-0.376,0.855-0.823,1.12c-0.447,0.266-1.16,0.397-2.139,0.397h-0.734v2.289h13.747V32.265z"/>
	<path fill="#282828" d="M211.182,32.265c-1.57,0-2.545-0.256-2.925-0.771s-0.569-1.468-0.569-2.86V20.25c0-1.476-0.329-2.737-0.987-3.781
		c-0.658-1.045-1.565-1.824-2.722-2.339c-1.156-0.514-2.46-0.771-3.911-0.771c-1.722,0-3.156,0.353-4.304,1.057
		c-1.148,0.705-2.254,1.613-3.316,2.724c0-0.199,0.004-0.377,0.012-0.535c0.009-0.158,0.014-0.344,0.014-0.56
		c0-0.829-0.076-1.725-0.229-2.687l-9.848,2.14v2.289c1.569,0,2.582,0.178,3.037,0.535c0.456,0.357,0.684,1.116,0.684,2.276v8.036
		c0,1.061-0.084,1.836-0.253,2.325s-0.515,0.829-1.038,1.021c-0.523,0.19-1.333,0.285-2.43,0.285v2.289h13.367v-2.289
		c-1.283,0-2.119-0.24-2.507-0.721c-0.389-0.48-0.582-1.377-0.582-2.688v-5.572c0-1.742,0.435-3.28,1.304-4.615
		s2.189-2.003,3.962-2.003c1.3,0,2.16,0.411,2.582,1.231c0.422,0.821,0.634,1.937,0.634,3.346v7.04c0,1.145-0.051,1.966-0.152,2.463
		c-0.102,0.498-0.367,0.875-0.798,1.133c-0.43,0.257-1.144,0.385-2.139,0.385v2.289h13.114V32.265z"/>
	<path fill="#282828" d="M241.455,31.967c-1.25-0.05-2.127-0.179-2.633-0.386c-0.507-0.207-0.814-0.543-0.925-1.008
		c-0.109-0.464-0.164-1.293-0.164-2.487V0.224l-10.38,2.14v2.289c1.164,0.033,2.004,0.116,2.519,0.249s0.865,0.439,1.051,0.92
		s0.278,1.277,0.278,2.388v8.16c-0.573-0.563-1.139-1.049-1.696-1.456c-0.557-0.406-1.3-0.767-2.228-1.082
		c-0.929-0.315-2.042-0.473-3.342-0.473c-1.772,0-3.351,0.299-4.734,0.896c-1.384,0.597-2.544,1.422-3.48,2.476
		c-0.938,1.053-1.625,2.21-2.063,3.47c-0.439,1.261-0.658,2.529-0.658,3.806c0,2.057,0.502,3.96,1.506,5.71s2.354,3.13,4.051,4.142
		c1.696,1.011,3.54,1.518,5.532,1.518c2.582,0,4.953-0.871,7.113-2.612c0.067,1.244,0.22,2.115,0.456,2.612
		c2.953-0.597,6.219-0.97,9.798-1.12V31.967z M228.67,31.792c-0.979,0.548-2.034,0.821-3.165,0.821
		c-1.569,0-2.882-0.696-3.937-2.089c-1.055-1.394-1.582-3.467-1.582-6.22c0-2.719,0.371-4.652,1.114-5.796
		c0.438-0.696,1.021-1.269,1.746-1.716s1.502-0.672,2.329-0.672c1.351,0,2.515,0.349,3.494,1.045
		c0.979,0.697,1.822,1.468,2.531,2.314v10.075C230.492,30.5,229.648,31.246,228.67,31.792z"/>
	<path fill="#282828" d="M262.657,23.409c-1.764-0.995-4.021-1.832-6.772-2.512c-0.27-0.066-1.105-0.274-2.506-0.622
		c-1.401-0.349-2.38-0.63-2.937-0.846c-0.558-0.215-0.949-0.448-1.178-0.697c-0.228-0.249-0.342-0.563-0.342-0.945
		c0-0.929,0.587-1.518,1.76-1.766c1.173-0.249,2.351-0.373,3.532-0.373c1.434,0,2.695,0.153,3.784,0.46
		c1.089,0.307,1.962,0.742,2.62,1.306s1.08,1.186,1.266,1.866h2.076v-5.771h-2.025l-0.607,1.269c-0.76-0.348-1.696-0.671-2.81-0.97
		c-1.114-0.298-2.6-0.448-4.456-0.448c-2.971,0-5.371,0.572-7.203,1.717c-1.831,1.144-2.746,2.695-2.746,4.652
		c0,1.542,0.515,2.803,1.544,3.781c1.029,0.979,2.287,1.729,3.772,2.251c1.484,0.522,3.393,1.074,5.722,1.654
		c1.924,0.481,3.235,0.892,3.937,1.231c0.7,0.34,1.051,0.883,1.051,1.629c0,0.863-0.342,1.502-1.025,1.916
		c-0.684,0.415-1.396,0.668-2.14,0.759s-1.435,0.137-2.076,0.137c-2.531,0-4.464-0.443-5.797-1.331
		c-1.334-0.887-2.187-1.887-2.558-2.998h-2.126l0.253,6.469h1.975l0.987-1.393c1.013,0.514,2.194,0.898,3.545,1.156
		c1.35,0.257,2.691,0.386,4.024,0.386c1.976,0,3.718-0.261,5.229-0.784c1.51-0.521,2.7-1.289,3.569-2.301s1.304-2.23,1.304-3.656
		C265.303,26.146,264.421,24.404,262.657,23.409z"/>
	<path fill="#282828" d="M293.202,29.305c0,0.631-0.165,1.169-0.494,1.617s-0.713,0.672-1.151,0.672c-0.49,0-0.849-0.12-1.076-0.36
		s-0.367-0.594-0.418-1.059c-0.051-0.463-0.076-1.193-0.076-2.188v-7.861c0-2.056-0.696-3.698-2.088-4.926
		c-1.393-1.227-3.945-1.841-7.658-1.841c-3.528,0-6.145,0.572-7.849,1.717c-1.705,1.144-2.557,2.487-2.557,4.03
		c0,0.78,0.27,1.368,0.81,1.767c0.54,0.398,1.165,0.597,1.874,0.597c1.147,0,1.902-0.245,2.266-0.734
		c0.362-0.489,0.611-1.115,0.747-1.878c0.186-1.078,0.564-1.882,1.139-2.413s1.511-0.796,2.811-0.796
		c1.519,0,2.561,0.335,3.127,1.007c0.564,0.671,0.848,1.596,0.848,2.774v1.418c-2.498,0.63-4.582,1.231-6.253,1.803
		c-1.671,0.572-3.11,1.231-4.316,1.978c-1.207,0.746-2.123,1.596-2.747,2.55c-0.625,0.954-0.937,2.02-0.937,3.196
		c0,1.427,0.582,2.575,1.746,3.445c1.165,0.871,2.658,1.307,4.481,1.307c2.852,0,5.688-1.111,8.506-3.334
		c0.186,0.912,0.751,1.696,1.696,2.352c0.945,0.654,2.127,0.982,3.545,0.982c1.113,0,2.114-0.211,3-0.635
		c0.886-0.422,1.591-1.077,2.114-1.965c0.522-0.887,0.784-1.961,0.784-3.222H293.202z M281.202,31.022
		c-0.709,0.382-1.528,0.572-2.456,0.572c-0.86,0-1.527-0.232-2-0.696c-0.473-0.465-0.709-1.078-0.709-1.842
		c0-0.912,0.435-1.845,1.304-2.799c0.869-0.953,2.907-1.928,6.114-2.923v6.17C282.661,30.134,281.91,30.64,281.202,31.022z"/>
	<path fill="#282828" d="M319.395,14.18h-8.202v2.289c0.675,0,1.261,0.137,1.759,0.41c0.498,0.274,0.747,0.659,0.747,1.157
		c0,0.415-0.278,1.186-0.835,2.314l-3.95,7.886l-5.342-9.229c-0.473-0.812-0.709-1.385-0.709-1.717c0-0.547,0.583-0.821,1.747-0.821
		h0.785V14.18h-12.278v2.289c0.658,0,1.173,0.112,1.544,0.335c0.371,0.224,0.785,0.743,1.24,1.555l9.646,16.693
		c-0.573,1.359-1.257,2.611-2.05,3.756c-0.794,1.145-1.941,1.932-3.443,2.363c-1.114,0.315-2.021,0.701-2.722,1.157
		s-1.051,1.19-1.051,2.202c0,0.713,0.287,1.301,0.861,1.766c0.573,0.465,1.248,0.697,2.025,0.697c1.13,0,2.075-0.324,2.835-0.971
		s1.438-1.521,2.038-2.625c0.599-1.104,1.726-3.32,3.38-6.654l7.418-15.125c0.844-1.692,1.43-2.815,1.759-3.371
		s0.696-0.966,1.102-1.231s0.971-0.448,1.696-0.547V14.18z"/>
</g>
</svg>
