<?xml version="1.0" encoding="utf-8"?>
<!-- Generator: Adobe Illustrator 16.0.0, SVG Export Plug-In . SVG Version: 6.00 Build 0)  -->
<!DOCTYPE svg PUBLIC "-//W3C//DTD SVG 1.1//EN" "http://www.w3.org/Graphics/SVG/1.1/DTD/svg11.dtd">
<svg version="1.1" id="Layer_1" xmlns="http://www.w3.org/2000/svg" xmlns:xlink="http://www.w3.org/1999/xlink" x="0px" y="0px"
	 width="20px" height="25.042px" viewBox="0 0 20 25.042" enable-background="new 0 0 20 25.042" xml:space="preserve">
<g>
	<path fill="#282828" d="M17,10.042v12H3v-12H17 M17,7.042H3c-1.657,0-3,1.343-3,3v12c0,1.657,1.343,3,3,3h14c1.657,0,3-1.343,3-3
		v-12C20,8.385,18.657,7.042,17,7.042L17,7.042z"/>
</g>
<g>
	<path fill="#282828" d="M14.938,9.958H5.062c-0.829,0-1.5-0.671-1.5-1.5C3.562,3.399,6.149,0,10,0c3.851,0,6.438,3.399,6.438,8.458
		C16.438,9.286,15.766,9.958,14.938,9.958z M6.673,6.958h6.652C12.997,4.816,11.934,3,10,3S7.002,4.816,6.673,6.958z"/>
</g>
</svg>
